<mxfile host="app.diagrams.net" agent="Mozilla/5.0 (Windows NT 10.0; Win64; x64) AppleWebKit/537.36 (KHTML, like Gecko) Chrome/139.0.0.0 Safari/537.36" version="28.0.9">
  <diagram name="Page-1" id="JxidGCts-E5ZQeckzJOy">
    <mxGraphModel dx="1913" dy="1540" grid="0" gridSize="10" guides="1" tooltips="1" connect="1" arrows="1" fold="1" page="0" pageScale="1" pageWidth="827" pageHeight="1169" math="0" shadow="0">
      <root>
        <mxCell id="0" />
        <mxCell id="1" parent="0" />
        <mxCell id="IJfCRK938yNYVS1qdQrZ-1" value="" style="whiteSpace=wrap;html=1;aspect=fixed;" parent="1" vertex="1">
          <mxGeometry x="95" y="119" width="422" height="422" as="geometry" />
        </mxCell>
        <mxCell id="IJfCRK938yNYVS1qdQrZ-3" value="&lt;font style=&quot;font-size: 20px;&quot;&gt;&lt;b&gt;FEATURES&lt;/b&gt;&lt;/font&gt;" style="text;html=1;align=center;verticalAlign=middle;whiteSpace=wrap;rounded=0;" parent="1" vertex="1">
          <mxGeometry x="125" y="59" width="60" height="30" as="geometry" />
        </mxCell>
        <mxCell id="IJfCRK938yNYVS1qdQrZ-8" style="edgeStyle=orthogonalEdgeStyle;rounded=0;orthogonalLoop=1;jettySize=auto;html=1;exitX=0.5;exitY=1;exitDx=0;exitDy=0;" parent="1" source="IJfCRK938yNYVS1qdQrZ-4" target="IJfCRK938yNYVS1qdQrZ-7" edge="1">
          <mxGeometry relative="1" as="geometry" />
        </mxCell>
        <mxCell id="IJfCRK938yNYVS1qdQrZ-4" value="Communicate between arduino and raspberry pi" style="whiteSpace=wrap;html=1;aspect=fixed;" parent="1" vertex="1">
          <mxGeometry x="118" y="169" width="122" height="122" as="geometry" />
        </mxCell>
        <mxCell id="IJfCRK938yNYVS1qdQrZ-6" style="edgeStyle=orthogonalEdgeStyle;rounded=0;orthogonalLoop=1;jettySize=auto;html=1;entryX=0.5;entryY=0;entryDx=0;entryDy=0;exitX=0;exitY=0.5;exitDx=0;exitDy=0;" parent="1" source="IJfCRK938yNYVS1qdQrZ-5" target="IJfCRK938yNYVS1qdQrZ-4" edge="1">
          <mxGeometry relative="1" as="geometry" />
        </mxCell>
        <mxCell id="IJfCRK938yNYVS1qdQrZ-10" style="edgeStyle=orthogonalEdgeStyle;rounded=0;orthogonalLoop=1;jettySize=auto;html=1;entryX=0.5;entryY=0;entryDx=0;entryDy=0;exitX=1;exitY=0.5;exitDx=0;exitDy=0;" parent="1" source="IJfCRK938yNYVS1qdQrZ-5" target="IJfCRK938yNYVS1qdQrZ-9" edge="1">
          <mxGeometry relative="1" as="geometry" />
        </mxCell>
        <mxCell id="IJfCRK938yNYVS1qdQrZ-13" style="edgeStyle=orthogonalEdgeStyle;rounded=0;orthogonalLoop=1;jettySize=auto;html=1;entryX=0.5;entryY=0;entryDx=0;entryDy=0;" parent="1" source="IJfCRK938yNYVS1qdQrZ-5" target="IJfCRK938yNYVS1qdQrZ-12" edge="1">
          <mxGeometry relative="1" as="geometry">
            <Array as="points">
              <mxPoint x="477" y="146" />
              <mxPoint x="477" y="375" />
            </Array>
          </mxGeometry>
        </mxCell>
        <mxCell id="IJfCRK938yNYVS1qdQrZ-5" value="&lt;font style=&quot;font-size: 22px;&quot;&gt;FPV&lt;/font&gt;" style="text;html=1;align=center;verticalAlign=middle;whiteSpace=wrap;rounded=0;" parent="1" vertex="1">
          <mxGeometry x="246.5" y="131" width="60" height="30" as="geometry" />
        </mxCell>
        <mxCell id="IJfCRK938yNYVS1qdQrZ-15" style="edgeStyle=orthogonalEdgeStyle;rounded=0;orthogonalLoop=1;jettySize=auto;html=1;entryX=0.5;entryY=1;entryDx=0;entryDy=0;" parent="1" source="IJfCRK938yNYVS1qdQrZ-7" target="IJfCRK938yNYVS1qdQrZ-12" edge="1">
          <mxGeometry relative="1" as="geometry" />
        </mxCell>
        <mxCell id="IJfCRK938yNYVS1qdQrZ-7" value="Send sensors data with webSockets" style="whiteSpace=wrap;html=1;aspect=fixed;" parent="1" vertex="1">
          <mxGeometry x="116" y="330" width="117" height="117" as="geometry" />
        </mxCell>
        <mxCell id="IJfCRK938yNYVS1qdQrZ-9" value="stream video with WebRTC" style="whiteSpace=wrap;html=1;aspect=fixed;" parent="1" vertex="1">
          <mxGeometry x="306.5" y="174" width="123" height="123" as="geometry" />
        </mxCell>
        <mxCell id="IJfCRK938yNYVS1qdQrZ-14" style="edgeStyle=orthogonalEdgeStyle;rounded=0;orthogonalLoop=1;jettySize=auto;html=1;exitX=0.25;exitY=0;exitDx=0;exitDy=0;entryX=1;entryY=0.5;entryDx=0;entryDy=0;" parent="1" source="IJfCRK938yNYVS1qdQrZ-11" target="IJfCRK938yNYVS1qdQrZ-12" edge="1">
          <mxGeometry relative="1" as="geometry">
            <Array as="points">
              <mxPoint x="489" y="297" />
              <mxPoint x="489" y="480" />
              <mxPoint x="431" y="480" />
              <mxPoint x="431" y="415" />
            </Array>
          </mxGeometry>
        </mxCell>
        <mxCell id="IJfCRK938yNYVS1qdQrZ-11" value="&lt;font style=&quot;font-size: 40px;&quot;&gt;}&lt;/font&gt;" style="text;html=1;align=center;verticalAlign=middle;whiteSpace=wrap;rounded=0;rotation=55;" parent="1" vertex="1">
          <mxGeometry x="261" y="277" width="95" height="183" as="geometry" />
        </mxCell>
        <mxCell id="IJfCRK938yNYVS1qdQrZ-12" value="Golang" style="whiteSpace=wrap;html=1;aspect=fixed;" parent="1" vertex="1">
          <mxGeometry x="328" y="375" width="80" height="80" as="geometry" />
        </mxCell>
        <mxCell id="IJfCRK938yNYVS1qdQrZ-16" value="" style="swimlane;startSize=0;" parent="1" vertex="1">
          <mxGeometry x="582" y="74" width="526" height="569" as="geometry" />
        </mxCell>
        <mxCell id="IJfCRK938yNYVS1qdQrZ-19" style="edgeStyle=orthogonalEdgeStyle;rounded=0;orthogonalLoop=1;jettySize=auto;html=1;entryX=0.5;entryY=0;entryDx=0;entryDy=0;" parent="IJfCRK938yNYVS1qdQrZ-16" source="IJfCRK938yNYVS1qdQrZ-17" target="IJfCRK938yNYVS1qdQrZ-18" edge="1">
          <mxGeometry relative="1" as="geometry" />
        </mxCell>
        <mxCell id="IJfCRK938yNYVS1qdQrZ-21" style="edgeStyle=orthogonalEdgeStyle;rounded=0;orthogonalLoop=1;jettySize=auto;html=1;entryX=0.5;entryY=0;entryDx=0;entryDy=0;" parent="IJfCRK938yNYVS1qdQrZ-16" source="IJfCRK938yNYVS1qdQrZ-17" target="IJfCRK938yNYVS1qdQrZ-20" edge="1">
          <mxGeometry relative="1" as="geometry" />
        </mxCell>
        <mxCell id="IJfCRK938yNYVS1qdQrZ-17" value="&lt;font style=&quot;font-size: 18px;&quot;&gt;&lt;b&gt;Acceleration&lt;/b&gt;&lt;/font&gt;" style="text;html=1;align=center;verticalAlign=middle;whiteSpace=wrap;rounded=0;" parent="IJfCRK938yNYVS1qdQrZ-16" vertex="1">
          <mxGeometry x="209" y="23" width="113" height="30" as="geometry" />
        </mxCell>
        <mxCell id="IJfCRK938yNYVS1qdQrZ-23" value="" style="edgeStyle=orthogonalEdgeStyle;rounded=0;orthogonalLoop=1;jettySize=auto;html=1;" parent="IJfCRK938yNYVS1qdQrZ-16" source="IJfCRK938yNYVS1qdQrZ-18" target="IJfCRK938yNYVS1qdQrZ-22" edge="1">
          <mxGeometry relative="1" as="geometry" />
        </mxCell>
        <mxCell id="IJfCRK938yNYVS1qdQrZ-26" value="" style="edgeStyle=orthogonalEdgeStyle;rounded=0;orthogonalLoop=1;jettySize=auto;html=1;" parent="IJfCRK938yNYVS1qdQrZ-16" source="IJfCRK938yNYVS1qdQrZ-18" target="IJfCRK938yNYVS1qdQrZ-25" edge="1">
          <mxGeometry relative="1" as="geometry" />
        </mxCell>
        <mxCell id="IJfCRK938yNYVS1qdQrZ-18" value="Brushless motors" style="whiteSpace=wrap;html=1;aspect=fixed;" parent="IJfCRK938yNYVS1qdQrZ-16" vertex="1">
          <mxGeometry x="47" y="69" width="119" height="119" as="geometry" />
        </mxCell>
        <mxCell id="IJfCRK938yNYVS1qdQrZ-24" style="edgeStyle=orthogonalEdgeStyle;rounded=0;orthogonalLoop=1;jettySize=auto;html=1;entryX=1;entryY=0.5;entryDx=0;entryDy=0;" parent="IJfCRK938yNYVS1qdQrZ-16" source="IJfCRK938yNYVS1qdQrZ-20" target="IJfCRK938yNYVS1qdQrZ-22" edge="1">
          <mxGeometry relative="1" as="geometry" />
        </mxCell>
        <mxCell id="IJfCRK938yNYVS1qdQrZ-20" value="Remote controller input" style="whiteSpace=wrap;html=1;aspect=fixed;" parent="IJfCRK938yNYVS1qdQrZ-16" vertex="1">
          <mxGeometry x="376" y="65.5" width="126" height="126" as="geometry" />
        </mxCell>
        <mxCell id="IJfCRK938yNYVS1qdQrZ-22" value="Progressive acceleration" style="whiteSpace=wrap;html=1;aspect=fixed;" parent="IJfCRK938yNYVS1qdQrZ-16" vertex="1">
          <mxGeometry x="209" y="69" width="119" height="119" as="geometry" />
        </mxCell>
        <mxCell id="IJfCRK938yNYVS1qdQrZ-82" value="" style="edgeStyle=orthogonalEdgeStyle;rounded=0;orthogonalLoop=1;jettySize=auto;html=1;" parent="IJfCRK938yNYVS1qdQrZ-16" source="IJfCRK938yNYVS1qdQrZ-25" target="IJfCRK938yNYVS1qdQrZ-81" edge="1">
          <mxGeometry relative="1" as="geometry" />
        </mxCell>
        <mxCell id="IJfCRK938yNYVS1qdQrZ-25" value="Motor to wheel axle" style="whiteSpace=wrap;html=1;aspect=fixed;" parent="IJfCRK938yNYVS1qdQrZ-16" vertex="1">
          <mxGeometry x="52" y="251" width="119" height="119" as="geometry" />
        </mxCell>
        <mxCell id="IJfCRK938yNYVS1qdQrZ-27" value="Remaining Battery" style="whiteSpace=wrap;html=1;aspect=fixed;" parent="IJfCRK938yNYVS1qdQrZ-16" vertex="1">
          <mxGeometry x="209" y="236" width="127" height="127" as="geometry" />
        </mxCell>
        <mxCell id="IJfCRK938yNYVS1qdQrZ-28" value="Sensors F-&amp;gt; G, temps, and speed" style="whiteSpace=wrap;html=1;aspect=fixed;" parent="IJfCRK938yNYVS1qdQrZ-16" vertex="1">
          <mxGeometry x="376" y="231.5" width="136" height="136" as="geometry" />
        </mxCell>
        <mxCell id="IJfCRK938yNYVS1qdQrZ-81" value="3 gears mode + pit stop mode" style="whiteSpace=wrap;html=1;aspect=fixed;" parent="IJfCRK938yNYVS1qdQrZ-16" vertex="1">
          <mxGeometry x="52" y="450" width="119" height="119" as="geometry" />
        </mxCell>
        <mxCell id="IJfCRK938yNYVS1qdQrZ-30" value="" style="swimlane;startSize=0;" parent="1" vertex="1">
          <mxGeometry x="-524" y="119" width="607" height="425" as="geometry" />
        </mxCell>
        <mxCell id="IJfCRK938yNYVS1qdQrZ-34" style="edgeStyle=orthogonalEdgeStyle;rounded=0;orthogonalLoop=1;jettySize=auto;html=1;entryX=0.5;entryY=0;entryDx=0;entryDy=0;" parent="IJfCRK938yNYVS1qdQrZ-30" source="IJfCRK938yNYVS1qdQrZ-31" target="IJfCRK938yNYVS1qdQrZ-33" edge="1">
          <mxGeometry relative="1" as="geometry" />
        </mxCell>
        <mxCell id="IJfCRK938yNYVS1qdQrZ-38" style="edgeStyle=orthogonalEdgeStyle;rounded=0;orthogonalLoop=1;jettySize=auto;html=1;entryX=0.5;entryY=0;entryDx=0;entryDy=0;" parent="IJfCRK938yNYVS1qdQrZ-30" source="IJfCRK938yNYVS1qdQrZ-31" target="IJfCRK938yNYVS1qdQrZ-35" edge="1">
          <mxGeometry relative="1" as="geometry" />
        </mxCell>
        <mxCell id="IJfCRK938yNYVS1qdQrZ-31" value="&lt;font style=&quot;font-size: 21px;&quot;&gt;Steering&lt;/font&gt;" style="text;html=1;align=center;verticalAlign=middle;whiteSpace=wrap;rounded=0;" parent="IJfCRK938yNYVS1qdQrZ-30" vertex="1">
          <mxGeometry x="253.5" y="18" width="75" height="30" as="geometry" />
        </mxCell>
        <mxCell id="IJfCRK938yNYVS1qdQrZ-40" value="" style="edgeStyle=orthogonalEdgeStyle;rounded=0;orthogonalLoop=1;jettySize=auto;html=1;" parent="IJfCRK938yNYVS1qdQrZ-30" source="IJfCRK938yNYVS1qdQrZ-33" target="IJfCRK938yNYVS1qdQrZ-39" edge="1">
          <mxGeometry relative="1" as="geometry" />
        </mxCell>
        <mxCell id="IJfCRK938yNYVS1qdQrZ-33" value="Wheel angle" style="whiteSpace=wrap;html=1;aspect=fixed;" parent="IJfCRK938yNYVS1qdQrZ-30" vertex="1">
          <mxGeometry x="44" y="73" width="118" height="118" as="geometry" />
        </mxCell>
        <mxCell id="IJfCRK938yNYVS1qdQrZ-41" style="edgeStyle=orthogonalEdgeStyle;rounded=0;orthogonalLoop=1;jettySize=auto;html=1;exitX=0.5;exitY=1;exitDx=0;exitDy=0;entryX=0.5;entryY=0;entryDx=0;entryDy=0;" parent="IJfCRK938yNYVS1qdQrZ-30" source="IJfCRK938yNYVS1qdQrZ-35" target="IJfCRK938yNYVS1qdQrZ-39" edge="1">
          <mxGeometry relative="1" as="geometry" />
        </mxCell>
        <mxCell id="IJfCRK938yNYVS1qdQrZ-35" value="sharp turns" style="whiteSpace=wrap;html=1;aspect=fixed;" parent="IJfCRK938yNYVS1qdQrZ-30" vertex="1">
          <mxGeometry x="208" y="73" width="120" height="120" as="geometry" />
        </mxCell>
        <mxCell id="IJfCRK938yNYVS1qdQrZ-36" value="Remote controller input" style="whiteSpace=wrap;html=1;aspect=fixed;" parent="IJfCRK938yNYVS1qdQrZ-30" vertex="1">
          <mxGeometry x="392" y="73" width="137" height="137" as="geometry" />
        </mxCell>
        <mxCell id="IJfCRK938yNYVS1qdQrZ-37" style="edgeStyle=orthogonalEdgeStyle;rounded=0;orthogonalLoop=1;jettySize=auto;html=1;exitX=1;exitY=0.5;exitDx=0;exitDy=0;entryX=0.577;entryY=0.015;entryDx=0;entryDy=0;entryPerimeter=0;" parent="IJfCRK938yNYVS1qdQrZ-30" source="IJfCRK938yNYVS1qdQrZ-31" target="IJfCRK938yNYVS1qdQrZ-36" edge="1">
          <mxGeometry relative="1" as="geometry" />
        </mxCell>
        <mxCell id="IJfCRK938yNYVS1qdQrZ-39" value="Sensibiloty" style="whiteSpace=wrap;html=1;aspect=fixed;" parent="IJfCRK938yNYVS1qdQrZ-30" vertex="1">
          <mxGeometry x="44" y="271" width="118" height="118" as="geometry" />
        </mxCell>
        <mxCell id="IJfCRK938yNYVS1qdQrZ-42" style="edgeStyle=orthogonalEdgeStyle;rounded=0;orthogonalLoop=1;jettySize=auto;html=1;exitX=0.5;exitY=1;exitDx=0;exitDy=0;entryX=1.031;entryY=0.571;entryDx=0;entryDy=0;entryPerimeter=0;" parent="IJfCRK938yNYVS1qdQrZ-30" source="IJfCRK938yNYVS1qdQrZ-36" target="IJfCRK938yNYVS1qdQrZ-39" edge="1">
          <mxGeometry relative="1" as="geometry">
            <Array as="points">
              <mxPoint x="461" y="336" />
              <mxPoint x="166" y="336" />
            </Array>
          </mxGeometry>
        </mxCell>
        <mxCell id="IJfCRK938yNYVS1qdQrZ-43" value="" style="swimlane;startSize=0;" parent="1" vertex="1">
          <mxGeometry x="-526" y="-393" width="650" height="400" as="geometry" />
        </mxCell>
        <mxCell id="IJfCRK938yNYVS1qdQrZ-47" style="edgeStyle=orthogonalEdgeStyle;rounded=0;orthogonalLoop=1;jettySize=auto;html=1;entryX=0.5;entryY=0;entryDx=0;entryDy=0;" parent="IJfCRK938yNYVS1qdQrZ-43" source="IJfCRK938yNYVS1qdQrZ-45" target="IJfCRK938yNYVS1qdQrZ-46" edge="1">
          <mxGeometry relative="1" as="geometry" />
        </mxCell>
        <mxCell id="IJfCRK938yNYVS1qdQrZ-45" value="&lt;font style=&quot;font-size: 21px;&quot;&gt;&lt;b&gt;Breaking&lt;/b&gt;&lt;/font&gt;" style="text;html=1;align=center;verticalAlign=middle;whiteSpace=wrap;rounded=0;" parent="IJfCRK938yNYVS1qdQrZ-43" vertex="1">
          <mxGeometry x="258" y="18" width="95" height="30" as="geometry" />
        </mxCell>
        <mxCell id="IJfCRK938yNYVS1qdQrZ-46" value="Parking system" style="whiteSpace=wrap;html=1;aspect=fixed;" parent="IJfCRK938yNYVS1qdQrZ-43" vertex="1">
          <mxGeometry x="41" y="66" width="121" height="121" as="geometry" />
        </mxCell>
        <mxCell id="IJfCRK938yNYVS1qdQrZ-48" value="drag" style="whiteSpace=wrap;html=1;aspect=fixed;" parent="IJfCRK938yNYVS1qdQrZ-43" vertex="1">
          <mxGeometry x="233" y="70" width="129" height="129" as="geometry" />
        </mxCell>
        <mxCell id="IJfCRK938yNYVS1qdQrZ-49" style="edgeStyle=orthogonalEdgeStyle;rounded=0;orthogonalLoop=1;jettySize=auto;html=1;exitX=0.5;exitY=1;exitDx=0;exitDy=0;entryX=0.563;entryY=0.016;entryDx=0;entryDy=0;entryPerimeter=0;" parent="IJfCRK938yNYVS1qdQrZ-43" source="IJfCRK938yNYVS1qdQrZ-45" target="IJfCRK938yNYVS1qdQrZ-48" edge="1">
          <mxGeometry relative="1" as="geometry" />
        </mxCell>
        <mxCell id="IJfCRK938yNYVS1qdQrZ-54" value="" style="edgeStyle=orthogonalEdgeStyle;rounded=0;orthogonalLoop=1;jettySize=auto;html=1;" parent="IJfCRK938yNYVS1qdQrZ-43" source="IJfCRK938yNYVS1qdQrZ-50" target="IJfCRK938yNYVS1qdQrZ-53" edge="1">
          <mxGeometry relative="1" as="geometry" />
        </mxCell>
        <mxCell id="IJfCRK938yNYVS1qdQrZ-50" value="Digital system with ESC" style="whiteSpace=wrap;html=1;aspect=fixed;" parent="IJfCRK938yNYVS1qdQrZ-43" vertex="1">
          <mxGeometry x="423" y="66" width="124" height="124" as="geometry" />
        </mxCell>
        <mxCell id="IJfCRK938yNYVS1qdQrZ-51" style="edgeStyle=orthogonalEdgeStyle;rounded=0;orthogonalLoop=1;jettySize=auto;html=1;entryX=0.578;entryY=0.013;entryDx=0;entryDy=0;entryPerimeter=0;" parent="IJfCRK938yNYVS1qdQrZ-43" source="IJfCRK938yNYVS1qdQrZ-45" target="IJfCRK938yNYVS1qdQrZ-50" edge="1">
          <mxGeometry relative="1" as="geometry" />
        </mxCell>
        <mxCell id="IJfCRK938yNYVS1qdQrZ-53" value="Fisical for harder stops" style="whiteSpace=wrap;html=1;aspect=fixed;" parent="IJfCRK938yNYVS1qdQrZ-43" vertex="1">
          <mxGeometry x="423" y="265" width="124" height="124" as="geometry" />
        </mxCell>
        <mxCell id="IJfCRK938yNYVS1qdQrZ-55" value="" style="swimlane;startSize=0;" parent="1" vertex="1">
          <mxGeometry x="156" y="-394" width="613" height="399" as="geometry" />
        </mxCell>
        <mxCell id="IJfCRK938yNYVS1qdQrZ-59" style="edgeStyle=orthogonalEdgeStyle;rounded=0;orthogonalLoop=1;jettySize=auto;html=1;entryX=0.5;entryY=0;entryDx=0;entryDy=0;" parent="IJfCRK938yNYVS1qdQrZ-55" source="IJfCRK938yNYVS1qdQrZ-57" target="IJfCRK938yNYVS1qdQrZ-58" edge="1">
          <mxGeometry relative="1" as="geometry" />
        </mxCell>
        <mxCell id="IJfCRK938yNYVS1qdQrZ-61" value="" style="edgeStyle=orthogonalEdgeStyle;rounded=0;orthogonalLoop=1;jettySize=auto;html=1;" parent="IJfCRK938yNYVS1qdQrZ-55" source="IJfCRK938yNYVS1qdQrZ-57" target="IJfCRK938yNYVS1qdQrZ-60" edge="1">
          <mxGeometry relative="1" as="geometry" />
        </mxCell>
        <mxCell id="IJfCRK938yNYVS1qdQrZ-63" style="edgeStyle=orthogonalEdgeStyle;rounded=0;orthogonalLoop=1;jettySize=auto;html=1;exitX=1;exitY=0.5;exitDx=0;exitDy=0;entryX=0.5;entryY=0;entryDx=0;entryDy=0;" parent="IJfCRK938yNYVS1qdQrZ-55" source="IJfCRK938yNYVS1qdQrZ-57" target="IJfCRK938yNYVS1qdQrZ-62" edge="1">
          <mxGeometry relative="1" as="geometry" />
        </mxCell>
        <mxCell id="IJfCRK938yNYVS1qdQrZ-57" value="&lt;font style=&quot;font-size: 19px;&quot;&gt;&lt;b&gt;Remote control&lt;/b&gt;&lt;/font&gt;" style="text;html=1;align=center;verticalAlign=middle;whiteSpace=wrap;rounded=0;" parent="IJfCRK938yNYVS1qdQrZ-55" vertex="1">
          <mxGeometry x="227.5" y="21" width="158" height="30" as="geometry" />
        </mxCell>
        <mxCell id="IJfCRK938yNYVS1qdQrZ-65" value="" style="edgeStyle=orthogonalEdgeStyle;rounded=0;orthogonalLoop=1;jettySize=auto;html=1;" parent="IJfCRK938yNYVS1qdQrZ-55" source="IJfCRK938yNYVS1qdQrZ-58" target="IJfCRK938yNYVS1qdQrZ-64" edge="1">
          <mxGeometry relative="1" as="geometry" />
        </mxCell>
        <mxCell id="IJfCRK938yNYVS1qdQrZ-58" value="Gear up and down button" style="whiteSpace=wrap;html=1;aspect=fixed;" parent="IJfCRK938yNYVS1qdQrZ-55" vertex="1">
          <mxGeometry x="47" y="66" width="113" height="113" as="geometry" />
        </mxCell>
        <mxCell id="IJfCRK938yNYVS1qdQrZ-67" value="" style="edgeStyle=orthogonalEdgeStyle;rounded=0;orthogonalLoop=1;jettySize=auto;html=1;" parent="IJfCRK938yNYVS1qdQrZ-55" source="IJfCRK938yNYVS1qdQrZ-60" target="IJfCRK938yNYVS1qdQrZ-66" edge="1">
          <mxGeometry relative="1" as="geometry" />
        </mxCell>
        <mxCell id="IJfCRK938yNYVS1qdQrZ-60" value="Input acceleration (also decelaration)" style="whiteSpace=wrap;html=1;aspect=fixed;" parent="IJfCRK938yNYVS1qdQrZ-55" vertex="1">
          <mxGeometry x="253" y="86" width="107" height="107" as="geometry" />
        </mxCell>
        <mxCell id="IJfCRK938yNYVS1qdQrZ-62" value="input steering" style="whiteSpace=wrap;html=1;aspect=fixed;" parent="IJfCRK938yNYVS1qdQrZ-55" vertex="1">
          <mxGeometry x="458" y="79" width="104" height="104" as="geometry" />
        </mxCell>
        <mxCell id="IJfCRK938yNYVS1qdQrZ-69" style="edgeStyle=orthogonalEdgeStyle;rounded=0;orthogonalLoop=1;jettySize=auto;html=1;exitX=1;exitY=0.5;exitDx=0;exitDy=0;entryX=0;entryY=0.5;entryDx=0;entryDy=0;" parent="IJfCRK938yNYVS1qdQrZ-55" source="IJfCRK938yNYVS1qdQrZ-64" target="IJfCRK938yNYVS1qdQrZ-66" edge="1">
          <mxGeometry relative="1" as="geometry" />
        </mxCell>
        <mxCell id="IJfCRK938yNYVS1qdQrZ-64" value="parking button" style="whiteSpace=wrap;html=1;aspect=fixed;" parent="IJfCRK938yNYVS1qdQrZ-55" vertex="1">
          <mxGeometry x="44" y="219" width="119" height="119" as="geometry" />
        </mxCell>
        <mxCell id="IJfCRK938yNYVS1qdQrZ-66" value="communicate with the cra LoRA module" style="whiteSpace=wrap;html=1;aspect=fixed;" parent="IJfCRK938yNYVS1qdQrZ-55" vertex="1">
          <mxGeometry x="253" y="224" width="120" height="120" as="geometry" />
        </mxCell>
        <mxCell id="IJfCRK938yNYVS1qdQrZ-68" style="edgeStyle=orthogonalEdgeStyle;rounded=0;orthogonalLoop=1;jettySize=auto;html=1;exitX=0.5;exitY=1;exitDx=0;exitDy=0;entryX=0.5;entryY=0;entryDx=0;entryDy=0;" parent="IJfCRK938yNYVS1qdQrZ-55" source="IJfCRK938yNYVS1qdQrZ-62" target="IJfCRK938yNYVS1qdQrZ-79" edge="1">
          <mxGeometry relative="1" as="geometry">
            <mxPoint x="513" y="256" as="targetPoint" />
          </mxGeometry>
        </mxCell>
        <mxCell id="IJfCRK938yNYVS1qdQrZ-80" style="edgeStyle=orthogonalEdgeStyle;rounded=0;orthogonalLoop=1;jettySize=auto;html=1;exitX=0;exitY=0.5;exitDx=0;exitDy=0;entryX=1;entryY=0.5;entryDx=0;entryDy=0;" parent="IJfCRK938yNYVS1qdQrZ-55" source="IJfCRK938yNYVS1qdQrZ-79" target="IJfCRK938yNYVS1qdQrZ-66" edge="1">
          <mxGeometry relative="1" as="geometry" />
        </mxCell>
        <mxCell id="IJfCRK938yNYVS1qdQrZ-79" value="Pit mode button" style="whiteSpace=wrap;html=1;aspect=fixed;" parent="IJfCRK938yNYVS1qdQrZ-55" vertex="1">
          <mxGeometry x="459.5" y="243" width="101" height="101" as="geometry" />
        </mxCell>
        <mxCell id="IJfCRK938yNYVS1qdQrZ-70" value="" style="swimlane;startSize=0;" parent="1" vertex="1">
          <mxGeometry x="807" y="-402" width="524" height="415" as="geometry" />
        </mxCell>
        <mxCell id="IJfCRK938yNYVS1qdQrZ-73" style="edgeStyle=orthogonalEdgeStyle;rounded=0;orthogonalLoop=1;jettySize=auto;html=1;entryX=0.5;entryY=0;entryDx=0;entryDy=0;" parent="IJfCRK938yNYVS1qdQrZ-70" source="IJfCRK938yNYVS1qdQrZ-71" target="IJfCRK938yNYVS1qdQrZ-72" edge="1">
          <mxGeometry relative="1" as="geometry" />
        </mxCell>
        <mxCell id="IJfCRK938yNYVS1qdQrZ-75" value="" style="edgeStyle=orthogonalEdgeStyle;rounded=0;orthogonalLoop=1;jettySize=auto;html=1;" parent="IJfCRK938yNYVS1qdQrZ-70" source="IJfCRK938yNYVS1qdQrZ-71" target="IJfCRK938yNYVS1qdQrZ-74" edge="1">
          <mxGeometry relative="1" as="geometry" />
        </mxCell>
        <mxCell id="IJfCRK938yNYVS1qdQrZ-77" value="" style="edgeStyle=orthogonalEdgeStyle;rounded=0;orthogonalLoop=1;jettySize=auto;html=1;" parent="IJfCRK938yNYVS1qdQrZ-70" source="IJfCRK938yNYVS1qdQrZ-71" target="IJfCRK938yNYVS1qdQrZ-76" edge="1">
          <mxGeometry relative="1" as="geometry" />
        </mxCell>
        <mxCell id="IJfCRK938yNYVS1qdQrZ-71" value="&lt;font style=&quot;font-size: 18px;&quot;&gt;&lt;b&gt;FailSafe&lt;/b&gt;&lt;/font&gt;" style="text;html=1;align=center;verticalAlign=middle;whiteSpace=wrap;rounded=0;" parent="IJfCRK938yNYVS1qdQrZ-70" vertex="1">
          <mxGeometry x="235" y="18" width="60" height="30" as="geometry" />
        </mxCell>
        <mxCell id="YLGeMCoe8y0h2_cwhy-U-15" value="" style="edgeStyle=orthogonalEdgeStyle;rounded=0;orthogonalLoop=1;jettySize=auto;html=1;" edge="1" parent="IJfCRK938yNYVS1qdQrZ-70" source="IJfCRK938yNYVS1qdQrZ-72" target="IJfCRK938yNYVS1qdQrZ-78">
          <mxGeometry relative="1" as="geometry" />
        </mxCell>
        <mxCell id="IJfCRK938yNYVS1qdQrZ-72" value="start up melody (because it&#39;s cool)" style="whiteSpace=wrap;html=1;aspect=fixed;" parent="IJfCRK938yNYVS1qdQrZ-70" vertex="1">
          <mxGeometry x="35" y="63" width="116" height="116" as="geometry" />
        </mxCell>
        <mxCell id="YLGeMCoe8y0h2_cwhy-U-16" value="" style="edgeStyle=orthogonalEdgeStyle;rounded=0;orthogonalLoop=1;jettySize=auto;html=1;" edge="1" parent="IJfCRK938yNYVS1qdQrZ-70" source="IJfCRK938yNYVS1qdQrZ-74" target="YLGeMCoe8y0h2_cwhy-U-13">
          <mxGeometry relative="1" as="geometry" />
        </mxCell>
        <mxCell id="IJfCRK938yNYVS1qdQrZ-74" value="checks for sensors NULL or extreme readings" style="whiteSpace=wrap;html=1;aspect=fixed;" parent="IJfCRK938yNYVS1qdQrZ-70" vertex="1">
          <mxGeometry x="183" y="61" width="117" height="117" as="geometry" />
        </mxCell>
        <mxCell id="YLGeMCoe8y0h2_cwhy-U-17" value="" style="edgeStyle=orthogonalEdgeStyle;rounded=0;orthogonalLoop=1;jettySize=auto;html=1;" edge="1" parent="IJfCRK938yNYVS1qdQrZ-70" source="IJfCRK938yNYVS1qdQrZ-76" target="YLGeMCoe8y0h2_cwhy-U-14">
          <mxGeometry relative="1" as="geometry" />
        </mxCell>
        <mxCell id="IJfCRK938yNYVS1qdQrZ-76" value="If temps get too high stop the car and send HUD warning" style="whiteSpace=wrap;html=1;aspect=fixed;" parent="IJfCRK938yNYVS1qdQrZ-70" vertex="1">
          <mxGeometry x="332" y="66" width="123" height="123" as="geometry" />
        </mxCell>
        <mxCell id="IJfCRK938yNYVS1qdQrZ-78" value="Each error send warning to HUD with info and stops throttle based on error and danger" style="whiteSpace=wrap;html=1;aspect=fixed;" parent="IJfCRK938yNYVS1qdQrZ-70" vertex="1">
          <mxGeometry x="35" y="222" width="139" height="139" as="geometry" />
        </mxCell>
        <mxCell id="YLGeMCoe8y0h2_cwhy-U-13" value="Physical kill switch" style="whiteSpace=wrap;html=1;aspect=fixed;" vertex="1" parent="IJfCRK938yNYVS1qdQrZ-70">
          <mxGeometry x="197" y="222" width="133" height="133" as="geometry" />
        </mxCell>
        <mxCell id="YLGeMCoe8y0h2_cwhy-U-14" value="Checks signal state, stops throttle if lost signal" style="whiteSpace=wrap;html=1;aspect=fixed;" vertex="1" parent="IJfCRK938yNYVS1qdQrZ-70">
          <mxGeometry x="354" y="222" width="130" height="130" as="geometry" />
        </mxCell>
        <mxCell id="IJfCRK938yNYVS1qdQrZ-84" value="" style="swimlane;startSize=0;" parent="1" vertex="1">
          <mxGeometry x="1359" y="-390" width="680" height="247" as="geometry" />
        </mxCell>
        <mxCell id="IJfCRK938yNYVS1qdQrZ-87" style="edgeStyle=orthogonalEdgeStyle;rounded=0;orthogonalLoop=1;jettySize=auto;html=1;entryX=0.5;entryY=0;entryDx=0;entryDy=0;" parent="IJfCRK938yNYVS1qdQrZ-84" source="IJfCRK938yNYVS1qdQrZ-85" target="IJfCRK938yNYVS1qdQrZ-86" edge="1">
          <mxGeometry relative="1" as="geometry" />
        </mxCell>
        <mxCell id="IJfCRK938yNYVS1qdQrZ-91" style="edgeStyle=orthogonalEdgeStyle;rounded=0;orthogonalLoop=1;jettySize=auto;html=1;entryX=0.5;entryY=0;entryDx=0;entryDy=0;" parent="IJfCRK938yNYVS1qdQrZ-84" source="IJfCRK938yNYVS1qdQrZ-85" target="IJfCRK938yNYVS1qdQrZ-90" edge="1">
          <mxGeometry relative="1" as="geometry" />
        </mxCell>
        <mxCell id="IJfCRK938yNYVS1qdQrZ-93" style="edgeStyle=orthogonalEdgeStyle;rounded=0;orthogonalLoop=1;jettySize=auto;html=1;entryX=0.5;entryY=0;entryDx=0;entryDy=0;" parent="IJfCRK938yNYVS1qdQrZ-84" source="IJfCRK938yNYVS1qdQrZ-85" target="IJfCRK938yNYVS1qdQrZ-92" edge="1">
          <mxGeometry relative="1" as="geometry" />
        </mxCell>
        <mxCell id="IJfCRK938yNYVS1qdQrZ-85" value="&lt;font style=&quot;font-size: 20px;&quot;&gt;HUD&lt;/font&gt;" style="text;html=1;align=center;verticalAlign=middle;resizable=0;points=[];autosize=1;strokeColor=none;fillColor=none;" parent="IJfCRK938yNYVS1qdQrZ-84" vertex="1">
          <mxGeometry x="309.5" y="25" width="61" height="36" as="geometry" />
        </mxCell>
        <mxCell id="IJfCRK938yNYVS1qdQrZ-86" value="Gear selection&lt;div&gt;1, 2,3 and pitmode&lt;/div&gt;" style="whiteSpace=wrap;html=1;aspect=fixed;" parent="IJfCRK938yNYVS1qdQrZ-84" vertex="1">
          <mxGeometry x="24" y="71" width="135" height="135" as="geometry" />
        </mxCell>
        <mxCell id="IJfCRK938yNYVS1qdQrZ-89" value="" style="edgeStyle=orthogonalEdgeStyle;rounded=0;orthogonalLoop=1;jettySize=auto;html=1;" parent="IJfCRK938yNYVS1qdQrZ-84" source="IJfCRK938yNYVS1qdQrZ-88" target="IJfCRK938yNYVS1qdQrZ-85" edge="1">
          <mxGeometry relative="1" as="geometry" />
        </mxCell>
        <mxCell id="IJfCRK938yNYVS1qdQrZ-88" value="Warning system" style="whiteSpace=wrap;html=1;aspect=fixed;" parent="IJfCRK938yNYVS1qdQrZ-84" vertex="1">
          <mxGeometry x="195" y="88" width="118" height="118" as="geometry" />
        </mxCell>
        <mxCell id="IJfCRK938yNYVS1qdQrZ-90" value="Show FPV" style="whiteSpace=wrap;html=1;aspect=fixed;" parent="IJfCRK938yNYVS1qdQrZ-84" vertex="1">
          <mxGeometry x="384" y="92" width="127" height="127" as="geometry" />
        </mxCell>
        <mxCell id="IJfCRK938yNYVS1qdQrZ-92" value="Build UI on top of the video stream" style="whiteSpace=wrap;html=1;aspect=fixed;" parent="IJfCRK938yNYVS1qdQrZ-84" vertex="1">
          <mxGeometry x="542" y="92" width="135" height="135" as="geometry" />
        </mxCell>
        <mxCell id="IJfCRK938yNYVS1qdQrZ-94" value="" style="swimlane;startSize=0;" parent="1" vertex="1">
          <mxGeometry x="1144" y="74" width="929" height="580" as="geometry" />
        </mxCell>
        <mxCell id="YLGeMCoe8y0h2_cwhy-U-2" style="edgeStyle=orthogonalEdgeStyle;rounded=0;orthogonalLoop=1;jettySize=auto;html=1;exitX=0;exitY=0.5;exitDx=0;exitDy=0;entryX=0.5;entryY=0;entryDx=0;entryDy=0;" edge="1" parent="IJfCRK938yNYVS1qdQrZ-94" source="IJfCRK938yNYVS1qdQrZ-95" target="IJfCRK938yNYVS1qdQrZ-96">
          <mxGeometry relative="1" as="geometry" />
        </mxCell>
        <mxCell id="YLGeMCoe8y0h2_cwhy-U-3" style="edgeStyle=orthogonalEdgeStyle;rounded=0;orthogonalLoop=1;jettySize=auto;html=1;exitX=0.5;exitY=1;exitDx=0;exitDy=0;entryX=0.5;entryY=0;entryDx=0;entryDy=0;" edge="1" parent="IJfCRK938yNYVS1qdQrZ-94" source="IJfCRK938yNYVS1qdQrZ-95" target="YLGeMCoe8y0h2_cwhy-U-1">
          <mxGeometry relative="1" as="geometry" />
        </mxCell>
        <mxCell id="YLGeMCoe8y0h2_cwhy-U-5" style="edgeStyle=orthogonalEdgeStyle;rounded=0;orthogonalLoop=1;jettySize=auto;html=1;exitX=1;exitY=0.25;exitDx=0;exitDy=0;entryX=0.5;entryY=0;entryDx=0;entryDy=0;" edge="1" parent="IJfCRK938yNYVS1qdQrZ-94" source="IJfCRK938yNYVS1qdQrZ-95" target="YLGeMCoe8y0h2_cwhy-U-4">
          <mxGeometry relative="1" as="geometry" />
        </mxCell>
        <mxCell id="IJfCRK938yNYVS1qdQrZ-95" value="&lt;font style=&quot;font-size: 18px;&quot;&gt;&lt;b&gt;AERO KIT&lt;/b&gt;&lt;/font&gt;" style="text;html=1;align=center;verticalAlign=middle;whiteSpace=wrap;rounded=0;" parent="IJfCRK938yNYVS1qdQrZ-94" vertex="1">
          <mxGeometry x="435" y="38" width="93" height="30" as="geometry" />
        </mxCell>
        <mxCell id="YLGeMCoe8y0h2_cwhy-U-9" style="edgeStyle=orthogonalEdgeStyle;rounded=0;orthogonalLoop=1;jettySize=auto;html=1;exitX=0.5;exitY=1;exitDx=0;exitDy=0;entryX=0.5;entryY=0;entryDx=0;entryDy=0;" edge="1" parent="IJfCRK938yNYVS1qdQrZ-94" source="IJfCRK938yNYVS1qdQrZ-96" target="YLGeMCoe8y0h2_cwhy-U-6">
          <mxGeometry relative="1" as="geometry" />
        </mxCell>
        <mxCell id="IJfCRK938yNYVS1qdQrZ-96" value="Front wing detachable" style="whiteSpace=wrap;html=1;aspect=fixed;" parent="IJfCRK938yNYVS1qdQrZ-94" vertex="1">
          <mxGeometry x="45" y="55" width="180" height="180" as="geometry" />
        </mxCell>
        <mxCell id="YLGeMCoe8y0h2_cwhy-U-10" value="" style="edgeStyle=orthogonalEdgeStyle;rounded=0;orthogonalLoop=1;jettySize=auto;html=1;" edge="1" parent="IJfCRK938yNYVS1qdQrZ-94" source="YLGeMCoe8y0h2_cwhy-U-1" target="YLGeMCoe8y0h2_cwhy-U-7">
          <mxGeometry relative="1" as="geometry" />
        </mxCell>
        <mxCell id="YLGeMCoe8y0h2_cwhy-U-1" value="Cannard" style="whiteSpace=wrap;html=1;aspect=fixed;" vertex="1" parent="IJfCRK938yNYVS1qdQrZ-94">
          <mxGeometry x="313" y="93" width="167" height="167" as="geometry" />
        </mxCell>
        <mxCell id="YLGeMCoe8y0h2_cwhy-U-4" value="&lt;font style=&quot;font-size: 15px;&quot;&gt;air intake with shark fins on wheel guard and top of the car&lt;/font&gt;" style="whiteSpace=wrap;html=1;aspect=fixed;" vertex="1" parent="IJfCRK938yNYVS1qdQrZ-94">
          <mxGeometry x="551" y="93" width="172" height="172" as="geometry" />
        </mxCell>
        <mxCell id="YLGeMCoe8y0h2_cwhy-U-6" value="&lt;font style=&quot;font-size: 18px;&quot;&gt;duct air&amp;nbsp;&lt;/font&gt;" style="whiteSpace=wrap;html=1;aspect=fixed;" vertex="1" parent="IJfCRK938yNYVS1qdQrZ-94">
          <mxGeometry x="61" y="291" width="124" height="124" as="geometry" />
        </mxCell>
        <mxCell id="YLGeMCoe8y0h2_cwhy-U-7" value="&lt;font style=&quot;font-size: 16px;&quot;&gt;deployable&amp;nbsp;&lt;/font&gt;&lt;div&gt;&lt;font style=&quot;font-size: 16px;&quot;&gt;spoiler&lt;/font&gt;&lt;/div&gt;" style="whiteSpace=wrap;html=1;aspect=fixed;" vertex="1" parent="IJfCRK938yNYVS1qdQrZ-94">
          <mxGeometry x="269" y="304" width="143" height="143" as="geometry" />
        </mxCell>
        <mxCell id="YLGeMCoe8y0h2_cwhy-U-11" value="" style="edgeStyle=orthogonalEdgeStyle;rounded=0;orthogonalLoop=1;jettySize=auto;html=1;" edge="1" parent="IJfCRK938yNYVS1qdQrZ-94" source="YLGeMCoe8y0h2_cwhy-U-8" target="YLGeMCoe8y0h2_cwhy-U-4">
          <mxGeometry relative="1" as="geometry" />
        </mxCell>
        <mxCell id="YLGeMCoe8y0h2_cwhy-U-8" value="rear diffuser" style="whiteSpace=wrap;html=1;aspect=fixed;" vertex="1" parent="IJfCRK938yNYVS1qdQrZ-94">
          <mxGeometry x="464" y="300" width="186" height="186" as="geometry" />
        </mxCell>
        <mxCell id="YLGeMCoe8y0h2_cwhy-U-12" value="side skirt" style="whiteSpace=wrap;html=1;aspect=fixed;" vertex="1" parent="IJfCRK938yNYVS1qdQrZ-94">
          <mxGeometry x="719" y="300" width="183" height="183" as="geometry" />
        </mxCell>
        <mxCell id="YLGeMCoe8y0h2_cwhy-U-19" value="" style="swimlane;startSize=0;" vertex="1" parent="1">
          <mxGeometry x="1355" y="-123" width="702" height="161" as="geometry" />
        </mxCell>
        <mxCell id="YLGeMCoe8y0h2_cwhy-U-26" style="edgeStyle=orthogonalEdgeStyle;rounded=0;orthogonalLoop=1;jettySize=auto;html=1;entryX=0.5;entryY=0;entryDx=0;entryDy=0;" edge="1" parent="YLGeMCoe8y0h2_cwhy-U-19" source="YLGeMCoe8y0h2_cwhy-U-20" target="YLGeMCoe8y0h2_cwhy-U-22">
          <mxGeometry relative="1" as="geometry">
            <Array as="points">
              <mxPoint x="629" y="19" />
            </Array>
          </mxGeometry>
        </mxCell>
        <mxCell id="YLGeMCoe8y0h2_cwhy-U-20" value="&lt;b&gt;&lt;font style=&quot;font-size: 17px;&quot;&gt;Power&lt;/font&gt;&lt;/b&gt;" style="text;html=1;align=center;verticalAlign=middle;whiteSpace=wrap;rounded=0;" vertex="1" parent="YLGeMCoe8y0h2_cwhy-U-19">
          <mxGeometry x="321" y="12" width="60" height="30" as="geometry" />
        </mxCell>
        <mxCell id="YLGeMCoe8y0h2_cwhy-U-21" value="Lipos" style="whiteSpace=wrap;html=1;aspect=fixed;" vertex="1" parent="YLGeMCoe8y0h2_cwhy-U-19">
          <mxGeometry x="25" y="28" width="107" height="107" as="geometry" />
        </mxCell>
        <mxCell id="YLGeMCoe8y0h2_cwhy-U-22" value="ESC" style="whiteSpace=wrap;html=1;aspect=fixed;" vertex="1" parent="YLGeMCoe8y0h2_cwhy-U-19">
          <mxGeometry x="577" y="39" width="104" height="104" as="geometry" />
        </mxCell>
        <mxCell id="YLGeMCoe8y0h2_cwhy-U-27" style="edgeStyle=orthogonalEdgeStyle;rounded=0;orthogonalLoop=1;jettySize=auto;html=1;entryX=0.421;entryY=0.016;entryDx=0;entryDy=0;entryPerimeter=0;" edge="1" parent="YLGeMCoe8y0h2_cwhy-U-19" source="YLGeMCoe8y0h2_cwhy-U-20" target="YLGeMCoe8y0h2_cwhy-U-21">
          <mxGeometry relative="1" as="geometry" />
        </mxCell>
      </root>
    </mxGraphModel>
  </diagram>
</mxfile>
